<svg xmlns="http://www.w3.org/2000/svg" xmlns:xlink="http://www.w3.org/1999/xlink" xmlns:svgjs="http://svgjs.com/svgjs" version="1.1" width="512" height="512" x="0" y="0" viewBox="0 0 512 512" style="enable-background:new 0 0 512 512" xml:space="preserve" class=""><g><path xmlns="http://www.w3.org/2000/svg" d="m420 36h-328a56 56 0 0 0 -56 56v328a56 56 0 0 0 56 56h328a56 56 0 0 0 56-56v-328a56 56 0 0 0 -56-56zm-86.071 349.055c-54.2 32.82-125.157 27.531-173.977-12.8-48.7-40.234-67.495-108.527-45.647-167.922 21.589-58.692 79.116-98.838 141.643-98.838 70.678 0 133.727 51.28 147.831 120.606 12.578 61.828-15.947 126.313-69.85 158.954z" fill="#000000" data-original="#000000" class=""/><path xmlns="http://www.w3.org/2000/svg" d="m303.7 271.805a556.827 556.827 0 0 1 24.424 89.362 127.494 127.494 0 0 0 53.534-83.979 177.943 177.943 0 0 0 -77.958-5.383z" fill="#000000" data-original="#000000" class=""/><path xmlns="http://www.w3.org/2000/svg" d="m339.907 160.683a127.381 127.381 0 0 0 -112.689-28.328 688.2 688.2 0 0 1 46.874 73.505c43-16.245 62.266-40.326 65.815-45.177z" fill="#000000" data-original="#000000" class=""/><path xmlns="http://www.w3.org/2000/svg" d="m268.931 255.46c-3.042-6.811-6.309-13.627-9.742-20.342a444.906 444.906 0 0 1 -130.623 18.082c-.036 1.039-.05 2.091-.05 3.141a126.636 126.636 0 0 0 32.084 84.329c23.882-39.444 63.914-72.405 108.331-85.21z" fill="#000000" data-original="#000000" class=""/><path xmlns="http://www.w3.org/2000/svg" d="m278.089 278.1c-69.8 24.292-96.224 71.867-99.862 79a127.334 127.334 0 0 0 126.949 16.612 529.966 529.966 0 0 0 -26.947-95.661.657.657 0 0 0 -.14.049z" fill="#000000" data-original="#000000" class=""/><path xmlns="http://www.w3.org/2000/svg" d="m284.638 226.24q5.73 11.811 10.711 23.952c28.975-3.586 59.4-1.864 88 4.011a126.527 126.527 0 0 0 -28.149-77.603c-4.456 5.772-25.969 31.27-70.562 49.64z" fill="#000000" data-original="#000000" class=""/><path xmlns="http://www.w3.org/2000/svg" d="m201.211 141.423a127.774 127.774 0 0 0 -69.805 87.934 456.666 456.666 0 0 0 116.429-15.34 822.518 822.518 0 0 0 -46.624-72.594z" fill="#000000" data-original="#000000" class=""/></g></svg>