<svg xmlns="http://www.w3.org/2000/svg" xmlns:xlink="http://www.w3.org/1999/xlink" xmlns:svgjs="http://svgjs.com/svgjs" version="1.1" width="512" height="512" x="0" y="0" viewBox="0 0 512 512" style="enable-background:new 0 0 512 512" xml:space="preserve"><g><rect xmlns="http://www.w3.org/2000/svg" fill="#2a4b9b" height="440" rx="56" width="440" x="26" y="40" data-original="#2a4b9b"/><path xmlns="http://www.w3.org/2000/svg" d="m466 424v-219.916l-90.008-90.008-56.566-.227c-62.791 0-77.059 46.794-77.059 76.746v33.1h-36.312v73.23l36.615 36.282v146.793h167.33a56 56 0 0 0 56-56z" fill="#1a1a1a" opacity=".21" data-original="#1a1a1a"/><path xmlns="http://www.w3.org/2000/svg" d="m242.67 480h73.23v-183.076h54.345l6.68-73.23h-58.195v-29.285c0-14.266 9.5-17.592 16.183-17.592h41.078v-62.741l-56.565-.227c-62.791 0-77.059 46.794-77.059 76.746v33.1h-36.312v73.23h36.615z" fill="#ffffff" data-original="#ffffff"/></g></svg>